<svg xmlns="http://www.w3.org/2000/svg" fill="none" viewBox="0 0 96 96"><g fill="#0D9488" clip-path="url(#a)"><path fill-rule="evenodd" d="M24 12h12V0h24v12h12v12h12v12h12v24H72v12H60V60H36v12H24V60H0V36h12V24h12V12Zm12 36V36H24v12h12Zm24 0h12V36H60v12Z" clip-rule="evenodd"/><path d="M24 84V72H12v12H0v12h12V84h12ZM36 84v12H24V84h12ZM60 84H36V72h24v12ZM72 84v12H60V84h12ZM84 84H72V72h12v12ZM84 84v12h12V84H84Z"/></g><defs><clipPath id="a"><path fill="#fff" d="M0 0h96v96H0z"/></clipPath></defs></svg>